<svg version="1.2" width="118.3mm" height="118.3mm" viewBox="0 0 11830 11830" preserveAspectRatio="xMidYMid" fill-rule="evenodd" stroke-width="28.222" stroke-linejoin="round" xmlns="http://www.w3.org/2000/svg"><defs class="ClipPathGroup"><clipPath id="a"><path d="M0 0h11830v11830H0z"/></clipPath></defs><g class="SlideGroup"><g class="Slide" clip-path="url(#a)"><g class="Page"><g class="com.sun.star.drawing.CustomShape"><path class="BoundingBox" fill="none" d="M5227 1417h1378v1378H5227z"/><path fill="#F00" d="M5915 1470c360 0 635 275 635 635s-275 635-635 635-635-275-635-635 275-635 635-635zm-635 0zm1271 1271z"/><path fill="none" stroke="#000" stroke-width="106" d="M5915 1470c360 0 635 275 635 635s-275 635-635 635-635-275-635-635 275-635 635-635z"/><text class="TextShape"><tspan class="TextParagraph" font-family="PT Sans, sans-serif" font-size="423" font-weight="700"><tspan class="TextPosition" x="5555" y="2262"><tspan fill="#FFF">+5V</tspan></tspan></tspan></text></g><g class="com.sun.star.drawing.CustomShape"><path class="BoundingBox" fill="none" d="M9037 5227h1379v1378H9037z"/><path fill="#06F" d="M9725 5280c360 0 635 275 635 635s-275 635-635 635-635-275-635-635 275-635 635-635zm-635 0zm1271 1271z"/><path fill="none" stroke="#000" stroke-width="106" d="M9725 5280c360 0 635 275 635 635s-275 635-635 635-635-275-635-635 275-635 635-635z"/><text class="TextShape"><tspan class="TextParagraph" font-family="PT Sans, sans-serif" font-size="423" font-weight="700"><tspan class="TextPosition" x="9244" y="6072"><tspan fill="#FFF">+24V</tspan></tspan></tspan></text></g><g class="com.sun.star.drawing.CustomShape"><path class="BoundingBox" fill="none" d="M1417 5227h1378v1378H1417z"/><path fill="#FFF" d="M2105 5280c360 0 635 275 635 635s-275 635-635 635-635-275-635-635 275-635 635-635zm-635 0zm1271 1271z"/><path fill="none" stroke="#000" stroke-width="106" d="M2105 5280c360 0 635 275 635 635s-275 635-635 635-635-275-635-635 275-635 635-635z"/></g><g class="com.sun.star.drawing.CustomShape"><path class="BoundingBox" fill="none" d="M7767 7794h1378v1378H7767z"/><path d="M8455 7847c360 0 635 275 635 635s-275 635-635 635-635-275-635-635 275-635 635-635zm-635 0zm1271 1271z"/><path fill="none" stroke="#000" stroke-width="106" d="M8455 7847c360 0 635 275 635 635s-275 635-635 635-635-275-635-635 275-635 635-635z"/><text class="TextShape"><tspan class="TextParagraph" font-family="PT Sans, sans-serif" font-size="423" font-weight="700"><tspan class="TextPosition" x="8048" y="8639"><tspan fill="#FFF">GND</tspan></tspan></tspan></text></g><g class="com.sun.star.drawing.CustomShape"><path class="BoundingBox" fill="none" d="M5227 5862h1378v1378H5227z"/><path fill="#FC0" d="M5915 5915c360 0 635 275 635 635s-275 635-635 635-635-275-635-635 275-635 635-635zm-635 0zm1271 1271z"/><path fill="none" stroke="#000" stroke-width="106" d="M5915 5915c360 0 635 275 635 635s-275 635-635 635-635-275-635-635 275-635 635-635z"/></g><g class="com.sun.star.drawing.CustomShape"><path class="BoundingBox" fill="none" d="M147 147h11538v11538H147z"/><path fill="none" stroke="#000" stroke-width="106" d="M5915 200c3240 0 5715 2475 5715 5715s-2475 5715-5715 5715S200 9155 200 5915 2675 200 5915 200z"/></g></g></g></g></svg>