<svg version="1.2" width="519.118" height="42.1mm" viewBox="0 0 13735 4210" preserveAspectRatio="xMidYMid" fill-rule="evenodd" stroke-width="28.222" stroke-linejoin="round" xmlns="http://www.w3.org/2000/svg"><defs class="ClipPathGroup"><clipPath id="a"><path d="M0 0h13735v4210H0z"/></clipPath></defs><g class="SlideGroup"><g class="Slide" clip-path="url(#a)"><g class="Page"><g class="com.sun.star.drawing.CustomShape"><path class="BoundingBox" fill="none" d="M3322 1417h1378v1378H3322z"/><path fill="#F00" d="M4010 1470c360 0 635 275 635 635s-275 635-635 635-635-275-635-635 275-635 635-635zm-635 0zm1271 1271z"/><path fill="none" stroke="#000" stroke-width="106" d="M4010 1470c360 0 635 275 635 635s-275 635-635 635-635-275-635-635 275-635 635-635z"/><text class="TextShape"><tspan class="TextParagraph" font-family="PT Sans, sans-serif" font-size="423" font-weight="700"><tspan class="TextPosition" x="3650" y="2262"><tspan fill="#FFF">+5V</tspan></tspan></tspan></text></g><g class="com.sun.star.drawing.CustomShape"><path class="BoundingBox" fill="none" d="M10942 1417h1378v1378h-1378z"/><path fill="#06F" d="M11630 1470c360 0 635 275 635 635s-275 635-635 635-635-275-635-635 275-635 635-635zm-635 0zm1271 1271z"/><path fill="none" stroke="#000" stroke-width="106" d="M11630 1470c360 0 635 275 635 635s-275 635-635 635-635-275-635-635 275-635 635-635z"/><text class="TextShape"><tspan class="TextParagraph" font-family="PT Sans, sans-serif" font-size="423" font-weight="700"><tspan class="TextPosition" x="11149" y="2262"><tspan fill="#FFF">+24V</tspan></tspan></tspan></text></g><g class="com.sun.star.drawing.CustomShape"><path class="BoundingBox" fill="none" d="M9037 1417h1379v1378H9037z"/><path fill="#FFF" d="M9725 1470c360 0 635 275 635 635s-275 635-635 635-635-275-635-635 275-635 635-635zm-635 0zm1271 1271z"/><path fill="none" stroke="#000" stroke-width="106" d="M9725 1470c360 0 635 275 635 635s-275 635-635 635-635-275-635-635 275-635 635-635z"/></g><g class="com.sun.star.drawing.CustomShape"><path class="BoundingBox" fill="none" d="M5227 1417h1378v1378H5227z"/><path fill="#F0C" d="M5915 1470c360 0 635 275 635 635s-275 635-635 635-635-275-635-635 275-635 635-635zm-635 0zm1271 1271z"/><path fill="none" stroke="#000" stroke-width="106" d="M5915 1470c360 0 635 275 635 635s-275 635-635 635-635-275-635-635 275-635 635-635z"/></g><g class="com.sun.star.drawing.CustomShape"><path class="BoundingBox" fill="none" d="M1417 1417h1378v1378H1417z"/><path d="M2105 1470c360 0 635 275 635 635s-275 635-635 635-635-275-635-635 275-635 635-635zm-635 0zm1271 1271z"/><path fill="none" stroke="#000" stroke-width="106" d="M2105 1470c360 0 635 275 635 635s-275 635-635 635-635-275-635-635 275-635 635-635z"/><text class="TextShape"><tspan class="TextParagraph" font-family="PT Sans, sans-serif" font-size="423" font-weight="700"><tspan class="TextPosition" x="1698" y="2262"><tspan fill="#FFF">GND</tspan></tspan></tspan></text></g><g class="com.sun.star.drawing.CustomShape"><path class="BoundingBox" fill="none" d="M7132 1417h1378v1378H7132z"/><path fill="#FC0" d="M7820 1470c360 0 635 275 635 635s-275 635-635 635-635-275-635-635 275-635 635-635zm-635 0zm1271 1271z"/><path fill="none" stroke="#000" stroke-width="106" d="M7820 1470c360 0 635 275 635 635s-275 635-635 635-635-275-635-635 275-635 635-635z"/></g><g class="com.sun.star.drawing.CustomShape"><path class="BoundingBox" fill="none" d="M146 147h13443v3918H146z"/><path fill="none" stroke="#000" stroke-width="106" d="M834 200c-318 0-635 317-635 635v2540c0 318 317 636 635 636h12065c317 0 635-318 635-636V835c0-318-318-635-635-635H834z"/></g></g></g></g></svg>